<svg width="1400" height="420" viewBox="0 0 1400 420" fill="none" xmlns="http://www.w3.org/2000/svg">
  <defs>
    <linearGradient id="bg" x1="0" y1="0" x2="1400" y2="420" gradientUnits="userSpaceOnUse">
      <stop stop-color="#05070D"/>
      <stop offset="0.48" stop-color="#0A0E18"/>
      <stop offset="1" stop-color="#05070D"/>
    </linearGradient>
    <linearGradient id="accent" x1="0" y1="0" x2="1" y2="1">
      <stop stop-color="#72D7FF"/>
      <stop offset="1" stop-color="#9B6CFF"/>
    </linearGradient>
    <radialGradient id="glowA" cx="0" cy="0" r="1" gradientTransform="translate(215 140) rotate(23) scale(430 300)" gradientUnits="userSpaceOnUse">
      <stop stop-color="#245CFF" stop-opacity="0.34"/>
      <stop offset="1" stop-color="#245CFF" stop-opacity="0"/>
    </radialGradient>
    <radialGradient id="glowB" cx="0" cy="0" r="1" gradientTransform="translate(1190 320) rotate(-155) scale(420 280)" gradientUnits="userSpaceOnUse">
      <stop stop-color="#7C3CFF" stop-opacity="0.32"/>
      <stop offset="1" stop-color="#7C3CFF" stop-opacity="0"/>
    </radialGradient>
    <linearGradient id="crystal" x1="1010" y1="78" x2="1185" y2="330" gradientUnits="userSpaceOnUse">
      <stop stop-color="#EAFBFF" stop-opacity="0.92"/>
      <stop offset="0.35" stop-color="#72D7FF" stop-opacity="0.7"/>
      <stop offset="1" stop-color="#9B6CFF" stop-opacity="0.28"/>
    </linearGradient>
    <filter id="shadow" x="-20%" y="-20%" width="140%" height="140%">
      <feDropShadow dx="0" dy="16" stdDeviation="22" flood-color="#000000" flood-opacity="0.45"/>
    </filter>
  </defs>
  <rect width="1400" height="420" rx="28" fill="url(#bg)"/>
  <rect width="1400" height="420" rx="28" fill="url(#glowA)"/>
  <rect width="1400" height="420" rx="28" fill="url(#glowB)"/>
  <g opacity="0.16">
    <path d="M0 72H1400M0 144H1400M0 216H1400M0 288H1400M0 360H1400" stroke="#D6E5FF"/>
    <path d="M72 0V420M144 0V420M216 0V420M288 0V420M360 0V420M432 0V420M504 0V420M576 0V420M648 0V420M720 0V420M792 0V420M864 0V420M936 0V420M1008 0V420M1080 0V420M1152 0V420M1224 0V420M1296 0V420M1368 0V420" stroke="#D6E5FF"/>
  </g>
  <g transform="translate(86 78)">
    <rect width="56" height="56" rx="17" fill="url(#accent)"/>
    <path d="M37 16C32 12 24 12 19 17C12 24 12 36 20 41C25 45 32 44 37 40" stroke="#06101B" stroke-width="7" stroke-linecap="round"/>
    <text x="76" y="40" fill="#EEF4FF" font-family="Arial, Helvetica, sans-serif" font-size="34" font-weight="800" letter-spacing="2">CPVP.PRO</text>
  </g>
  <text x="86" y="220" fill="#EEF4FF" font-family="Arial, Helvetica, sans-serif" font-size="72" font-weight="900" letter-spacing="-4">CRYSTAL PVP PLATFORM</text>
  <text x="90" y="272" fill="#BFCBDD" font-family="Arial, Helvetica, sans-serif" font-size="23" font-weight="500">Обучение · TierList · Форум · Комьюнити</text>
  <g transform="translate(88 310)">
    <rect width="212" height="40" rx="20" fill="#0D1421" stroke="#72D7FF" stroke-opacity="0.36"/>
    <circle cx="24" cy="20" r="6" fill="#94FFCF"/>
    <text x="43" y="26" fill="#BFCBDD" font-family="monospace" font-size="15" font-weight="700" letter-spacing="1">IN DEVELOPMENT</text>
  </g>
  <g filter="url(#shadow)">
    <path d="M1112 60L1221 143L1187 322L1041 322L1007 143L1112 60Z" fill="url(#crystal)" stroke="#FFFFFF" stroke-opacity="0.42" stroke-width="2"/>
    <path d="M1112 60L1112 322M1007 143L1112 202L1221 143M1041 322L1112 202L1187 322" stroke="#EAFBFF" stroke-opacity="0.28" stroke-width="2"/>
    <path d="M1112 93L1190 151L1164 291L1061 291L1034 151L1112 93Z" stroke="#72D7FF" stroke-opacity="0.38" stroke-width="2"/>
  </g>
  <rect x="0.5" y="0.5" width="1399" height="419" rx="27.5" stroke="#96B4FF" stroke-opacity="0.18"/>
</svg>
